<?xml version="1.0" encoding="utf-8"?>
<svg version="1.1" id="Layer_2" xmlns="http://www.w3.org/2000/svg" xmlns:xlink="http://www.w3.org/1999/xlink" x="0px" y="0px"
	 viewBox="0 0 689.6 172.5" style="enable-background:new 0 0 689.6 172.5;" xml:space="preserve">
<style type="text/css">
	.st0{fill:#0055B8;}
	.st1{fill:#010101;}
</style>
<g>
	<g>
		<g>
			<path class="st0" d="M83.3,73.2c1.4-1.1,3.4-1.1,4.9,0l44,32.6c2.5-6,3.9-12.6,3.9-19.5c0-27.8-22.5-50.4-50.4-50.4
				S35.4,58.4,35.4,86.3c0,6.9,1.4,13.5,3.9,19.5L83.3,73.2z"/>
			<path class="st0" d="M88.2,91.5c-1.4-1.1-3.4-1.1-4.9,0L47,118.4c9.2,11.1,23.2,18.2,38.7,18.2s29.5-7.1,38.7-18.2L88.2,91.5z"/>
		</g>
		<path class="st0" d="M85.7,13.5C45.5,13.5,13,46.1,13,86.3c0,40.2,32.6,72.8,72.8,72.8s72.8-32.6,72.8-72.8
			C158.5,46.1,125.9,13.5,85.7,13.5z M129.9,37.6c1.2-1.2,3.2-1.2,4.5,0c1.2,1.2,1.2,3.2,0,4.5c-1.2,1.2-3.2,1.2-4.5,0
			C128.7,40.8,128.7,38.8,129.9,37.6z M83.3,20.6l2.4-4.2l2.4,4.2l2.4,4.2h-4.9h-4.9L83.3,20.6z M37.1,37.6c1.2-1.2,3.2-1.2,4.5,0
			c1.2,1.2,1.2,3.2,0,4.5c-1.2,1.2-3.2,1.2-4.5,0C35.8,40.8,35.8,38.8,37.1,37.6z M24.3,86.3v4.9l-4.2-2.4l-4.2-2.4l4.2-2.4l4.2-2.4
			V86.3z M41.6,134.9c-1.2,1.2-3.2,1.2-4.5,0c-1.2-1.2-1.2-3.2,0-4.5c1.2-1.2,3.2-1.2,4.5,0C42.8,131.7,42.8,133.7,41.6,134.9z
			 M88.2,151.9l-2.4,4.2l-2.4-4.2l-2.4-4.2h4.9h4.9L88.2,151.9z M134.4,134.9c-1.2,1.2-3.2,1.2-4.5,0c-1.2-1.2-1.2-3.2,0-4.5
			c1.2-1.2,3.2-1.2,4.5,0C135.6,131.7,135.6,133.7,134.4,134.9z M85.7,143.3c-31.5,0-57.1-25.6-57.1-57.1s25.6-57.1,57.1-57.1
			s57.1,25.6,57.1,57.1S117.3,143.3,85.7,143.3z M147.2,91.1v-4.9v-4.9l4.2,2.4l4.2,2.4l-4.2,2.4L147.2,91.1z"/>
	</g>
	<g>
		<path class="st1" d="M206.1,41.8l38.9,88.6h-13l-9.5-22.6h-34.7l-9.6,22.6h-12.6l39-88.6H206.1z M191.2,99.2h27.5L205,66.6
			L191.2,99.2z"/>
		<path class="st1" d="M324.6,81.2c0.3,1.1,0.5,2.3,0.7,3.7c0.2,1.4,0.2,3,0.2,4.9c0,6.3-0.9,12.1-2.8,17.2
			c-1.9,5.1-4.5,9.5-7.9,13.2c-3.4,3.7-7.4,6.5-12.1,8.5c-4.7,2-9.8,3-15.5,3c-5.9,0-11.3-1.1-16.3-3.3c-5-2.2-9.4-5.3-13-9.3
			c-3.7-4-6.5-8.8-8.6-14.4c-2.1-5.6-3.1-11.9-3.1-18.8c0-7.5,1.2-14,3.5-19.5c2.4-5.5,5.5-10.1,9.4-13.7c3.9-3.6,8.4-6.3,13.5-8.1
			c5.1-1.8,10.4-2.7,15.9-2.7c5.9,0,11.6,1,16.9,2.9c5.3,1.9,10,4.5,13.9,7.8l-6.2,10.2c-3.7-3-7.5-5.2-11.7-6.7
			c-4.1-1.5-8.3-2.2-12.7-2.2c-4.3,0-8.3,0.7-12,2.1c-3.7,1.4-7,3.5-9.8,6.3c-2.8,2.8-5,6.2-6.6,10.3c-1.6,4.1-2.4,8.8-2.4,14.1
			c0,5,0.7,9.4,2.1,13.5c1.4,4,3.4,7.5,5.9,10.5c2.6,2.9,5.6,5.2,9.3,6.8c3.6,1.6,7.6,2.4,11.9,2.4c4.2,0,8-0.7,11.3-2.2
			c3.4-1.4,6.2-3.4,8.5-6c2.3-2.6,4.1-5.6,5.4-9.1c1.3-3.5,1.9-7.3,1.9-11.4h-24.5v-9.8H324.6z"/>
		<path class="st1" d="M350.1,43v87.4H338V43H350.1z"/>
		<path class="st1" d="M379.9,43v75.6h39.3v11.9h-51.4V43H379.9z"/>
		<path class="st1" d="M443.2,43v87.4h-12.1V43H443.2z"/>
		<path class="st1" d="M519.6,63.8c-3.4-2.9-7.1-5.3-11.1-7.2c-4-1.9-8.5-2.9-13.5-2.9c-4.2,0-8.1,0.7-11.7,2.2
			c-3.6,1.4-6.7,3.5-9.3,6.3c-2.6,2.7-4.7,6.2-6.2,10.2c-1.5,4.1-2.2,8.7-2.2,14c0,5.3,0.8,10.1,2.3,14.2c1.5,4.1,3.6,7.6,6.2,10.4
			c2.6,2.8,5.7,5,9.3,6.5c3.5,1.5,7.3,2.2,11.4,2.2c2.5,0,5-0.3,7.3-0.9c2.4-0.6,4.6-1.4,6.7-2.6c2.1-1.1,4.1-2.6,5.8-4.3
			c1.7-1.8,3.1-3.8,4.3-6.1l8.9,7.3c-1.6,3.1-3.6,5.8-6,8.2c-2.4,2.3-5,4.2-7.9,5.8c-2.9,1.5-6,2.6-9.2,3.4
			c-3.2,0.7-6.5,1.1-9.9,1.1c-5.9,0-11.4-1.1-16.5-3.3c-5-2.2-9.4-5.2-13-9.2c-3.7-4-6.5-8.7-8.6-14.3c-2.1-5.6-3.1-11.8-3.1-18.7
			c0-6.9,1-13,3.1-18.5c2.1-5.4,4.9-10.1,8.6-13.9c3.7-3.8,8.1-6.7,13.2-8.8c5.1-2.1,10.7-3.1,16.7-3.1c6.6,0,12.5,1.1,17.8,3.4
			c5.3,2.2,10,5.2,14.1,8.9L519.6,63.8z"/>
		<path class="st1" d="M550.7,43v53.6c0,3.7,0.3,6.9,1,9.8c0.7,2.9,1.8,5.3,3.4,7.3c1.6,2,3.7,3.5,6.2,4.5c2.6,1,5.7,1.5,9.5,1.5
			c7,0,12.1-1.9,15.4-5.7c3.2-3.8,4.9-9.6,4.9-17.4V43h11.8v53.5c0,12-2.8,20.8-8.3,26.5c-5.6,5.7-13.5,8.6-23.9,8.6
			c-11,0-19.1-3-24.3-9c-5.2-6-7.8-14.7-7.8-25.9V43H550.7z"/>
		<path class="st1" d="M670.8,60.7c-4.3-2.3-8.7-4.1-13.3-5.5c-4.6-1.4-9.1-2.1-13.5-2.1c-5.5,0-9.8,1.1-13,3.4
			c-3.2,2.2-4.8,5.6-4.8,10.1c0,3.4,0.9,5.8,2.8,7.5c1.9,1.6,4.6,3.1,8.2,4.4c1.4,0.5,3.2,1.1,5.4,1.8c2.1,0.6,4.4,1.3,6.7,2
			c2.3,0.7,4.6,1.4,6.9,2.2c2.2,0.8,4.2,1.5,6,2.2c5,2.1,8.7,4.6,11.1,7.7c2.4,3.1,3.5,7.1,3.5,12.2c0,7.8-2.6,13.9-7.8,18.3
			c-5.2,4.5-12.8,6.7-22.7,6.7c-2.1,0-4.6-0.1-7.3-0.4c-2.7-0.3-5.5-0.7-8.5-1.3c-2.9-0.6-5.9-1.4-8.8-2.5c-2.9-1-5.7-2.3-8.2-3.9
			l2.7-10.7c2.3,1.3,4.8,2.4,7.4,3.4c2.7,1,5.3,1.7,7.9,2.3c2.6,0.6,5.2,1.1,7.7,1.4c2.5,0.3,4.7,0.5,6.8,0.5c6.2,0,10.9-1.3,14-3.8
			c3.1-2.5,4.6-6,4.6-10.4c0-3-0.8-5.4-2.3-7.2c-1.6-1.8-4.2-3.4-8.1-4.7c-1.1-0.4-2.7-0.9-4.7-1.4c-2-0.6-4.1-1.2-6.3-1.9
			c-2.2-0.7-4.5-1.4-6.7-2.1c-2.2-0.7-4.2-1.4-5.9-2.1c-2.3-0.9-4.4-2-6.5-3.2c-2-1.2-3.8-2.7-5.2-4.3c-1.4-1.7-2.6-3.6-3.4-5.9
			c-0.8-2.2-1.3-4.8-1.3-7.7c0-3.8,0.7-7.2,2.2-10.1c1.4-2.9,3.5-5.4,6.1-7.4c2.6-2,5.8-3.6,9.6-4.6c3.8-1.1,7.9-1.6,12.5-1.6
			c5.1,0,10.1,0.7,15,2c4.9,1.3,9.5,3.3,13.9,6L670.8,60.7z"/>
	</g>
</g>
</svg>
