<?xml version="1.0" encoding="UTF-8" standalone="no"?>
<svg
   xmlns:dc="http://purl.org/dc/elements/1.1/"
   xmlns:cc="http://creativecommons.org/ns#"
   xmlns:rdf="http://www.w3.org/1999/02/22-rdf-syntax-ns#"
   xmlns:svg="http://www.w3.org/2000/svg"
   xmlns="http://www.w3.org/2000/svg"
   id="Layer_1"
   viewBox="0 0 2400 500"
   version="1.1"
   width="2400"
   height="500">
  <metadata
     id="metadata17">
    <rdf:RDF>
      <cc:Work
         rdf:about="">
        <dc:format>image/svg+xml</dc:format>
        <dc:type
           rdf:resource="http://purl.org/dc/dcmitype/StillImage" />
        <dc:title></dc:title>
      </cc:Work>
    </rdf:RDF>
  </metadata>
  <defs
     id="defs15" />
  <style
     id="style2">
    .st0{fill:#0055b8}
  </style>
  <g
     style="fill:#ffffff;fill-opacity:1"
     transform="matrix(1.3669414,0,0,1.3669414,-22.841613,2.5127766)"
     id="g2495">
    <path
       class="st0"
       d="m 190.7,164.1 c 3.2,-2.3 7.5,-2.3 10.6,0 l 96,71.2 c 5.5,-13.1 8.6,-27.5 8.6,-42.6 C 305.9,132 256.7,82.8 196,82.8 135.3,82.8 86.1,132 86.1,192.7 c 0,15.1 3.1,29.5 8.6,42.6 z"
       id="path921"
       style="fill:#ffffff;fill-opacity:1" />
    <path
       class="st0"
       d="m 201.3,204.2 c -3.2,-2.3 -7.5,-2.3 -10.6,0 l -79.2,58.7 c 20.2,24.2 50.5,39.6 84.5,39.6 34,0 64.3,-15.4 84.5,-39.6 z"
       id="path923"
       style="fill:#ffffff;fill-opacity:1" />
    <path
       class="st0"
       d="m 196,33.9 c -87.7,0 -158.8,71.1 -158.8,158.8 0,87.7 71.1,158.8 158.8,158.8 87.7,0 158.8,-71.1 158.8,-158.8 C 354.8,105 283.7,33.9 196,33.9 Z m 96.4,52.6 c 2.7,-2.7 7.1,-2.7 9.8,0 2.7,2.7 2.7,7.1 0,9.8 -2.7,2.7 -7.1,2.7 -9.8,0 -2.7,-2.7 -2.7,-7.1 0,-9.8 z m -101.7,-37.1 5.3,-9.2 5.3,9.2 5.3,9.2 H 185.4 Z M 89.8,86.5 c 2.7,-2.7 7.1,-2.7 9.8,0 2.7,2.7 2.7,7.1 0,9.8 -2.7,2.7 -7.1,2.7 -9.8,0 -2.7,-2.7 -2.7,-7.1 0,-9.8 z M 61.9,192.7 v 10.6 l -9.2,-5.3 -9.2,-5.3 9.2,-5.3 9.2,-5.3 z m 37.7,106.1 c -2.7,2.7 -7.1,2.7 -9.8,0 -2.7,-2.7 -2.7,-7.1 0,-9.8 2.7,-2.7 7.1,-2.7 9.8,0 2.7,2.8 2.7,7.1 0,9.8 z m 101.7,37.1 -5.3,9.2 -5.3,-9.2 -5.3,-9.2 h 21.2 z m 100.9,-37.1 c -2.7,2.7 -7.1,2.7 -9.8,0 -2.7,-2.7 -2.7,-7.1 0,-9.8 2.7,-2.7 7.1,-2.7 9.8,0 2.7,2.8 2.7,7.1 0,9.8 z M 196,317.2 C 127.2,317.2 71.4,261.4 71.4,192.6 71.4,123.8 127.2,68.1 196,68.1 c 68.8,0 124.6,55.8 124.6,124.6 0,68.8 -55.8,124.5 -124.6,124.5 z M 330.1,203.3 v -21.2 l 9.2,5.3 9.2,5.3 -9.2,5.3 z"
       id="path925"
       style="fill:#ffffff;fill-opacity:1" />
  </g>
  <g
     id="text2147"
     style="font-style:normal;font-weight:normal;font-size:144.88388062px;line-height:1.25;font-family:sans-serif;letter-spacing:0px;word-spacing:0px;fill:#ffffff;fill-opacity:1;stroke:none;stroke-width:3.62209678;stroke-opacity:1"
     aria-label="AGILICUS">
    <path
       id="path827"
       style="font-style:normal;font-variant:normal;font-weight:bold;font-stretch:normal;font-size:400px;font-family:'Canada 1500';-inkscape-font-specification:'Canada 1500, Bold';font-variant-ligatures:normal;font-variant-caps:normal;font-variant-numeric:normal;font-feature-settings:normal;text-align:start;writing-mode:lr-tb;text-anchor:start;fill:#ffffff;fill-opacity:1;stroke:none;stroke-width:3.62209678;stroke-opacity:1"
       d="m 622.58379,118.40982 -136.4,310 h 54.4 l 27.6,-66 h 112.8 l 27.6,66 h 56.8 l -136.8,-310 z m 2.4,108.8 40.8,98 h -82 z" />
    <path
       id="path829"
       style="font-style:normal;font-variant:normal;font-weight:bold;font-stretch:normal;font-size:400px;font-family:'Canada 1500';-inkscape-font-specification:'Canada 1500, Bold';font-variant-ligatures:normal;font-variant-caps:normal;font-variant-numeric:normal;font-feature-settings:normal;text-align:start;writing-mode:lr-tb;text-anchor:start;fill:#ffffff;fill-opacity:1;stroke:none;stroke-width:3.62209678;stroke-opacity:1"
       d="m 922.97129,253.20982 v 43.2 h 76.8 c -2.4,49.2 -34.4,83.6 -85.2,83.6 -57.2,0 -93.2,-43.6 -93.2,-104.8 0,-65.6 41.2,-104.4 98,-104.4 29.6,0 57.6,10.4 79.6,29.6 l 27.20001,-44.8 c -27.20001,-22.8 -66.00001,-37.2 -108.00001,-37.2 -77.6,0 -149.6,49.6 -149.6,154 0,96.8 62,160 144.8,160 77.2,0 134.00001,-55.2 134.00001,-147.6 0,-13.6 -1.2,-23.6 -3.2,-31.6 z" />
    <path
       id="path831"
       style="font-style:normal;font-variant:normal;font-weight:bold;font-stretch:normal;font-size:400px;font-family:'Canada 1500';-inkscape-font-specification:'Canada 1500, Bold';font-variant-ligatures:normal;font-variant-caps:normal;font-variant-numeric:normal;font-feature-settings:normal;text-align:start;writing-mode:lr-tb;text-anchor:start;fill:#ffffff;fill-opacity:1;stroke:none;stroke-width:3.62209678;stroke-opacity:1"
       d="m 1096.94,122.40982 v 306 h 52.4 v -306 z" />
    <path
       id="path833"
       style="font-style:normal;font-variant:normal;font-weight:bold;font-stretch:normal;font-size:400px;font-family:'Canada 1500';-inkscape-font-specification:'Canada 1500, Bold';font-variant-ligatures:normal;font-variant-caps:normal;font-variant-numeric:normal;font-feature-settings:normal;text-align:start;writing-mode:lr-tb;text-anchor:start;fill:#ffffff;fill-opacity:1;stroke:none;stroke-width:3.62209678;stroke-opacity:1"
       d="m 1210.2213,122.40982 v 306 h 180.8 v -52.4 h -128.4 v -253.6 z" />
    <path
       id="path835"
       style="font-style:normal;font-variant:normal;font-weight:bold;font-stretch:normal;font-size:400px;font-family:'Canada 1500';-inkscape-font-specification:'Canada 1500, Bold';font-variant-ligatures:normal;font-variant-caps:normal;font-variant-numeric:normal;font-feature-settings:normal;text-align:start;writing-mode:lr-tb;text-anchor:start;fill:#ffffff;fill-opacity:1;stroke:none;stroke-width:3.62209678;stroke-opacity:1"
       d="m 1432.0963,122.40982 v 306 h 52.4 v -306 z" />
    <path
       id="path837"
       style="font-style:normal;font-variant:normal;font-weight:bold;font-stretch:normal;font-size:400px;font-family:'Canada 1500';-inkscape-font-specification:'Canada 1500, Bold';font-variant-ligatures:normal;font-variant-caps:normal;font-variant-numeric:normal;font-feature-settings:normal;text-align:start;writing-mode:lr-tb;text-anchor:start;fill:#ffffff;fill-opacity:1;stroke:none;stroke-width:3.62209678;stroke-opacity:1"
       d="m 1793.7775,161.20982 c -28,-25.6 -66,-42.8 -112,-42.8 -85.2,0 -146.8,59.2 -146.8,154.8 0,96 62,159.2 145.2,159.2 47.2,0 93.2,-20.4 116.4,-64.4 l -39.2,-32.4 c -13.6,28 -43.2,44.4 -77.2,44.4 -50.4,0 -92.4,-36.4 -92.4,-105.2 0,-67.6 40.8,-104 93.2,-104 33.2,0 58.8,14.8 79.6,33.2 z" />
    <path
       id="path839"
       style="font-style:normal;font-variant:normal;font-weight:bold;font-stretch:normal;font-size:400px;font-family:'Canada 1500';-inkscape-font-specification:'Canada 1500, Bold';font-variant-ligatures:normal;font-variant-caps:normal;font-variant-numeric:normal;font-feature-settings:normal;text-align:start;writing-mode:lr-tb;text-anchor:start;fill:#ffffff;fill-opacity:1;stroke:none;stroke-width:3.62209678;stroke-opacity:1"
       d="m 1839.8338,122.40982 v 189.2 c 0,77.6 35.6,120.8 112.8,120.8 72.8,0 113.2,-38.8 113.2,-121.2 v -188.8 h -51.2 v 189.6 c 0,46 -19.2,68 -61.6,68 -44.8,0 -60.8,-24.4 -60.8,-68 v -189.6 z" />
    <path
       id="path841"
       style="font-style:normal;font-variant:normal;font-weight:bold;font-stretch:normal;font-size:400px;font-family:'Canada 1500';-inkscape-font-specification:'Canada 1500, Bold';font-variant-ligatures:normal;font-variant-caps:normal;font-variant-numeric:normal;font-feature-settings:normal;text-align:start;writing-mode:lr-tb;text-anchor:start;fill:#ffffff;fill-opacity:1;stroke:none;stroke-width:3.62209678;stroke-opacity:1"
       d="m 2322.7213,146.40982 c -31.6,-18.8 -66.4,-28 -101.6,-28 -64.4,0 -107.6,30.4 -107.6,85.2 0,37.2 20,59.6 54.8,74.4 24,10 76.4,26.4 80.4,27.6 23.2,7.6 32,18 32,35.6 0,25.2 -17.6,41.2 -56,41.2 -27.2,0 -71.2,-8 -102.4,-25.6 l -11.6,47.2 c 36,22.4 85.2,28.4 114.4,28.4 70,0 108.4,-34.8 108.4,-88.8 0,-34.4 -15.6,-55.2 -49.2,-70.4 -23.2,-10.4 -65.2,-22.8 -85.6,-30.4 -20.4,-7.6 -32.8,-15.2 -32.8,-35.2 0,-25.6 20,-39.2 53.2,-39.2 29.2,0 63.2,10.4 91.6,25.6 z" />
  </g>
  <rect
     style="opacity:1;fill:#000000;fill-opacity:0;stroke:none;stroke-width:6.4277997;stroke-linecap:round;stroke-linejoin:bevel;stroke-miterlimit:4;stroke-dasharray:none;stroke-opacity:1"
     id="rect833"
     width="2363.7368"
     height="487.61938"
     x="3.9610169"
     y="13.781036" />
</svg>
